HIERARCHY
ROOT Hips
{
    OFFSET   0.000000   0.000000   0.000000
    CHANNELS 6 Xposition Yposition Zposition Zrotation Xrotation Yrotation
    JOINT Chest
    {
        OFFSET   0.000000   8.007230   0.000000
        CHANNELS 3 Zrotation Xrotation Yrotation
        JOINT Chest2
        {
            OFFSET   0.000000  22.077100   0.000000
            CHANNELS 3 Zrotation Xrotation Yrotation
            JOINT Neck
            {
                OFFSET   0.000000  23.255100   0.000000
                CHANNELS 3 Zrotation Xrotation Yrotation
                JOINT Head
                {
                    OFFSET   0.000000  14.370100   1.956600
                    CHANNELS 3 Zrotation Xrotation Yrotation
                    End Site
                    {
                        OFFSET   0.000000  19.566000   0.000000
                    }
                }
            }
            JOINT LeftCollar
            {
                OFFSET   3.911900  19.017000  -0.467063
                CHANNELS 3 Zrotation Xrotation Yrotation
                JOINT LeftShoulder
                {
                    OFFSET  10.383700   0.000000   0.000000
                    CHANNELS 3 Zrotation Xrotation Yrotation
                    JOINT LeftElbow
                    {
                        OFFSET  26.662100   0.001193   0.000980
                        CHANNELS 3 Zrotation Xrotation Yrotation
                        JOINT LeftWrist
                        {
                            OFFSET  28.869000  -0.000059  -0.000082
                            CHANNELS 3 Zrotation Xrotation Yrotation
                            JOINT LeftFinger0
                            {
                                OFFSET   2.044650  -2.323450   3.252850
                                CHANNELS 3 Zrotation Xrotation Yrotation
                                JOINT LeftFinger01
                                {
                                    OFFSET   3.088130   0.000000   0.000000
                                    CHANNELS 3 Zrotation Xrotation Yrotation
                                    JOINT LeftFinger02
                                    {
                                        OFFSET   2.639460   0.000000   0.000000
                                        CHANNELS 3 Zrotation Xrotation Yrotation
                                        End Site
                                        {
                                            OFFSET   2.582190   0.000000   0.000000
                                        }
                                    }
                                }
                            }
                            JOINT LeftFinger1
                            {
                                OFFSET   8.364480   0.000000   3.252850
                                CHANNELS 3 Zrotation Xrotation Yrotation
                                JOINT LeftFinger11
                                {
                                    OFFSET   4.646930   0.000000   0.000000
                                    CHANNELS 3 Zrotation Xrotation Yrotation
                                    JOINT LeftFinger12
                                    {
                                        OFFSET   2.323470   0.000000   0.000000
                                        CHANNELS 3 Zrotation Xrotation Yrotation
                                        End Site
                                        {
                                            OFFSET   2.273050   0.000000   0.000000
                                        }
                                    }
                                }
                            }
                            JOINT LeftFinger2
                            {
                                OFFSET   8.364490   0.000016   1.078090
                                CHANNELS 3 Zrotation Xrotation Yrotation
                                JOINT LeftFinger21
                                {
                                    OFFSET   5.111610   0.000000   0.000000
                                    CHANNELS 3 Zrotation Xrotation Yrotation
                                    JOINT LeftFinger22
                                    {
                                        OFFSET   2.788150   0.000016   0.000000
                                        CHANNELS 3 Zrotation Xrotation Yrotation
                                        End Site
                                        {
                                            OFFSET   2.727660   0.000000   0.000000
                                        }
                                    }
                                }
                            }
                            JOINT LeftFinger3
                            {
                                OFFSET   7.899780   0.000015  -1.078090
                                CHANNELS 3 Zrotation Xrotation Yrotation
                                JOINT LeftFinger31
                                {
                                    OFFSET   4.646930   0.000000   0.000000
                                    CHANNELS 3 Zrotation Xrotation Yrotation
                                    JOINT LeftFinger32
                                    {
                                        OFFSET   2.323470   0.000000   0.000000
                                        CHANNELS 3 Zrotation Xrotation Yrotation
                                        End Site
                                        {
                                            OFFSET   2.273050   0.000000   0.000000
                                        }
                                    }
                                }
                            }
                            JOINT LeftFinger4
                            {
                                OFFSET   7.435090   0.000000  -3.252850
                                CHANNELS 3 Zrotation Xrotation Yrotation
                                JOINT LeftFinger41
                                {
                                    OFFSET   3.717550   0.000000   0.000000
                                    CHANNELS 3 Zrotation Xrotation Yrotation
                                    JOINT LeftFinger42
                                    {
                                        OFFSET   1.858770   0.000000   0.000000
                                        CHANNELS 3 Zrotation Xrotation Yrotation
                                        End Site
                                        {
                                            OFFSET   1.818440   0.000000   0.000000
                                        }
                                    }
                                }
                            }
                        }
                    }
                }
            }
            JOINT RightCollar
            {
                OFFSET  -3.911910  19.017000  -0.467062
                CHANNELS 3 Zrotation Xrotation Yrotation
                JOINT RightShoulder
                {
                    OFFSET -10.383700   0.000014   0.000000
                    CHANNELS 3 Zrotation Xrotation Yrotation
                    JOINT RightElbow
                    {
                        OFFSET -26.662100   0.001225   0.001091
                        CHANNELS 3 Zrotation Xrotation Yrotation
                        JOINT RightWrist
                        {
                            OFFSET -28.869000  -0.000020  -0.000085
                            CHANNELS 3 Zrotation Xrotation Yrotation
                            JOINT RightFinger0
                            {
                                OFFSET  -2.044650  -2.323490   3.252850
                                CHANNELS 3 Zrotation Xrotation Yrotation
                                JOINT RightFinger01
                                {
                                    OFFSET  -3.088130   0.000000   0.000000
                                    CHANNELS 3 Zrotation Xrotation Yrotation
                                    JOINT RightFinger02
                                    {
                                        OFFSET  -2.639460   0.000000   0.000000
                                        CHANNELS 3 Zrotation Xrotation Yrotation
                                        End Site
                                        {
                                            OFFSET  -2.582190   0.000000   0.000000
                                        }
                                    }
                                }
                            }
                            JOINT RightFinger1
                            {
                                OFFSET  -8.364480   0.000000   3.252850
                                CHANNELS 3 Zrotation Xrotation Yrotation
                                JOINT RightFinger11
                                {
                                    OFFSET  -4.646930   0.000000   0.000000
                                    CHANNELS 3 Zrotation Xrotation Yrotation
                                    JOINT RightFinger12
                                    {
                                        OFFSET  -2.323470   0.000000   0.000000
                                        CHANNELS 3 Zrotation Xrotation Yrotation
                                        End Site
                                        {
                                            OFFSET  -2.273050   0.000000   0.000000
                                        }
                                    }
                                }
                            }
                            JOINT RightFinger2
                            {
                                OFFSET  -8.364480   0.000000   1.078090
                                CHANNELS 3 Zrotation Xrotation Yrotation
                                JOINT RightFinger21
                                {
                                    OFFSET  -5.111620   0.000000   0.000000
                                    CHANNELS 3 Zrotation Xrotation Yrotation
                                    JOINT RightFinger22
                                    {
                                        OFFSET  -2.788160   0.000000   0.000000
                                        CHANNELS 3 Zrotation Xrotation Yrotation
                                        End Site
                                        {
                                            OFFSET  -2.727660   0.000000   0.000000
                                        }
                                    }
                                }
                            }
                            JOINT RightFinger3
                            {
                                OFFSET  -7.899780   0.000000  -1.078090
                                CHANNELS 3 Zrotation Xrotation Yrotation
                                JOINT RightFinger31
                                {
                                    OFFSET  -4.646930   0.000000   0.000000
                                    CHANNELS 3 Zrotation Xrotation Yrotation
                                    JOINT RightFinger32
                                    {
                                        OFFSET  -2.323470   0.000000   0.000000
                                        CHANNELS 3 Zrotation Xrotation Yrotation
                                        End Site
                                        {
                                            OFFSET  -2.273050   0.000000   0.000000
                                        }
                                    }
                                }
                            }
                            JOINT RightFinger4
                            {
                                OFFSET  -7.435090   0.000000  -3.252850
                                CHANNELS 3 Zrotation Xrotation Yrotation
                                JOINT RightFinger41
                                {
                                    OFFSET  -3.717550   0.000000   0.000000
                                    CHANNELS 3 Zrotation Xrotation Yrotation
                                    JOINT RightFinger42
                                    {
                                        OFFSET  -1.858760   0.000000   0.000000
                                        CHANNELS 3 Zrotation Xrotation Yrotation
                                        End Site
                                        {
                                            OFFSET  -1.818440   0.000000   0.000000
                                        }
                                    }
                                }
                            }
                        }
                    }
                }
            }
        }
    }
    JOINT LeftHip
    {
        OFFSET   9.783030   0.000000   0.000000
        CHANNELS 3 Zrotation Xrotation Yrotation
        JOINT LeftKnee
        {
            OFFSET   0.000063 -41.789100   0.000608
            CHANNELS 3 Zrotation Xrotation Yrotation
            JOINT LeftAnkle
            {
                OFFSET   0.000048 -41.133200  -0.000184
                CHANNELS 3 Zrotation Xrotation Yrotation
                JOINT LeftToe
                {
                    OFFSET   0.000000  -6.358960  14.674500
                    CHANNELS 3 Zrotation Xrotation Yrotation
                    End Site
                    {
                        OFFSET   0.000000   0.000000   3.913200
                    }
                }
            }
        }
    }
    JOINT RightHip
    {
        OFFSET  -9.783030   0.000000   0.000000
        CHANNELS 3 Zrotation Xrotation Yrotation
        JOINT RightKnee
        {
            OFFSET   0.000071 -41.789100   0.001239
            CHANNELS 3 Zrotation Xrotation Yrotation
            JOINT RightAnkle
            {
                OFFSET   0.000037 -41.133200  -0.000166
                CHANNELS 3 Zrotation Xrotation Yrotation
                JOINT RightToe
                {
                    OFFSET   0.000000  -6.358960  14.674500
                    CHANNELS 3 Zrotation Xrotation Yrotation
                    End Site
                    {
                        OFFSET   0.000000   0.000000   3.913200
                    }
                }
            }
        }
    }
}
MOTION
Frames: 5
Frame Time:   0.016667
  2.627380  89.558100   0.839771  -1.212740  -2.679710  -2.571380   0.867385   2.510900   0.277020   1.725090   5.025670   0.516663  -1.919490   2.422500   0.082538  -3.164600   4.895880   5.408390  -5.990890   1.947780  12.114400 -79.626000   7.589560   1.057190   0.115836   7.126430 -16.247000  12.104700  -4.519820   0.462670  39.820200  35.770100 -51.122300 -34.995300  -0.009635  -0.005074 -12.760700  -0.000544  -0.009664 -39.165000  -3.461310   4.234400 -32.148600   0.006212   0.001145 -22.502600   0.007951  -0.001543 -34.389200  -3.598100   5.249410 -51.816600  -0.001811  -0.001744 -34.519600   0.003655  -0.006070 -28.612900  -4.392660   7.996570 -43.378200  -0.000153  -0.001001 -28.878100   0.002284  -0.005747 -37.092000  -5.539320   7.262330 -56.164800   0.012888  -0.007653 -37.405800   0.007811  -0.007114   5.631970   4.760170   6.832450  72.135500  -3.547810  -2.459710   3.410850  -5.556240  17.829500 -21.286400   2.234640   5.037500 -49.461700  48.858700  96.101500  16.213700   0.002243  -0.002554   3.106850   0.000445  -0.006244  39.113400  -0.189136  -0.221630  31.995400  -0.002006  -0.000596  22.392700   0.000801  -0.007716  31.973400  -3.700870  -5.902650  48.246900   0.000000   0.001565  32.132400  -0.003868   0.001311  33.712700  -5.199220  -7.746240  51.101400  -0.000059  -0.002126  34.030600  -0.001335   0.003446  46.141000  -6.749840  -6.448410  69.783900   0.002861   0.013717  46.475300  -0.001318  -0.002366   0.613136   4.632930  -2.298340   0.313746   0.057612  12.179700  -1.116110  -2.694810   2.655570   0.000000   0.000000   0.000000  -0.376147   2.025050  -2.031100  -1.316430   4.630530 -12.964800   0.929453  -3.310830  -2.112300   0.000000   0.000000  -0.000000
  2.620580  89.558100   0.846893  -1.212080  -2.655340  -2.549400   0.867352   2.505410   0.280954   1.724890   5.014760   0.524626  -1.917470   2.398080   0.082525  -3.158430   4.846530   5.357280  -5.994700   1.936270  12.103700 -79.627700   7.588820   1.069890   0.110350   7.120980 -16.246800  12.099600  -4.514790   0.462714  39.810400  35.754200 -51.107900 -34.995100  -0.009634  -0.005072 -12.760700  -0.000544  -0.009659 -39.165200  -3.461160   4.234220 -32.148700   0.006212   0.001148 -22.502500   0.007949  -0.001539 -34.389300  -3.598110   5.249390 -51.816700  -0.001811  -0.001746 -34.519600   0.003656  -0.006070 -28.611200  -4.392610   7.996490 -43.376000  -0.000152  -0.000999 -28.878100   0.002281  -0.005747 -37.091100  -5.537280   7.262080 -56.163300   0.012889  -0.007650 -37.404800   0.007810  -0.007113   5.632810   4.748440   6.836540  72.134600  -3.562050  -2.492970   3.428110  -5.549110  17.838200 -21.296300   2.229760   5.029390 -49.432500  48.836900  96.062800  16.229800   0.002250  -0.002543   3.114890   0.000444  -0.006249  39.105700  -0.189134  -0.225524  31.995600  -0.002009  -0.000596  22.392700   0.000799  -0.007715  31.968100  -3.700870  -5.902620  48.239700   0.000000   0.001565  32.127100  -0.003868   0.001311  33.712800  -5.199220  -7.746210  51.101700  -0.000059  -0.002126  34.030700  -0.001336   0.003446  46.141200  -6.749870  -6.448370  69.783900   0.002862   0.013718  46.475500  -0.001318  -0.002366   0.622756   4.615850  -2.298360   0.316359   0.057191  12.164100  -1.123620  -2.698660   2.648500  -0.000000   0.000000  -0.000000  -0.372038   2.049140  -2.036340  -1.309330   4.573690 -12.968100   0.919694  -3.311270  -2.127460   0.000000   0.000000   0.000000
  2.608580  89.558100   0.860257  -1.211960  -2.613970  -2.513580   0.867253   2.494790   0.287003   1.724430   4.993630   0.536904  -1.912140   2.361600   0.082484  -3.147570   4.772870   5.275900  -6.001830   1.919180  12.087500 -79.630000   7.583760   1.088380   0.102746   7.115530 -16.246600  12.092400  -4.507060   0.462798  39.800500  35.738400 -51.093500 -34.994800  -0.009632  -0.005064 -12.760700  -0.000545  -0.009653 -39.165400  -3.460890   4.233890 -32.148800   0.006213   0.001156 -22.502400   0.007945  -0.001529 -34.389300  -3.598120   5.249360 -51.816800  -0.001810  -0.001750 -34.519700   0.003659  -0.006070 -28.607200  -4.392560   7.996400 -43.370600  -0.000149  -0.000996 -28.878100   0.002273  -0.005748 -37.087100  -5.533310   7.261810 -56.157200   0.012892  -0.007645 -37.400700   0.007807  -0.007111   5.634110   4.731360   6.842850  72.136300  -3.587370  -2.544870   3.453170  -5.536920  17.846700 -21.311000   2.222250   5.014200 -49.403400  48.815000  96.024100  16.254700   0.002258  -0.002528   3.127360   0.000441  -0.006258  39.098100  -0.189132  -0.232747  31.996000  -0.002012  -0.000596  22.392700   0.000798  -0.007715  31.962900  -3.700850  -5.902560  48.230900   0.000000   0.001564  32.121800  -0.003867   0.001310  33.713000  -5.199220  -7.746150  51.102100  -0.000060  -0.002126  34.030900  -0.001336   0.003446  46.141400  -6.749910  -6.448290  69.783900   0.002863   0.013719  46.475700  -0.001319  -0.002365   0.639023   4.584850  -2.298390   0.321697   0.056773  12.138900  -1.138400  -2.706740   2.636750   0.000000   0.000000  -0.000000  -0.364326   2.073210  -2.046310  -1.293980   4.516760 -12.975600   0.903861  -3.311740  -2.148400   0.000000   0.000000   0.000000
  2.597740  89.556400   0.874288  -1.213980  -2.577630  -2.485980   0.867119   2.482330   0.290919   1.723990   4.968770   0.544934  -1.903250   2.342350   0.082399  -3.135230   4.734200   5.216060  -6.008610   1.909850  12.077800 -79.631000   7.565170   1.098850   0.098411   7.116820 -16.241800  12.088900  -4.501260   0.462903  39.804900  35.746300 -51.100600 -34.994900  -0.009639  -0.005050 -12.760700  -0.000546  -0.009652 -39.164100  -3.460540   4.233460 -32.147700   0.006214   0.001169 -22.502500   0.007937  -0.001513 -34.389400  -3.598150   5.249310 -51.815900  -0.001808  -0.001758 -34.519700   0.003664  -0.006071 -28.599600  -4.392740   7.996720 -43.359900  -0.000144  -0.000990 -28.878100   0.002259  -0.005749 -37.076500  -5.527660   7.262480 -56.141600   0.012897  -0.007637 -37.390200   0.007801  -0.007107   5.634880   4.722850   6.846390  72.144600  -3.617400  -2.586190   3.464750  -5.523660  17.841600 -21.320500   2.216550   4.997640 -49.414100  48.823000  96.038300  16.265900   0.002248  -0.002525   3.132960   0.000437  -0.006269  39.100800  -0.193230  -0.239419  31.996100  -0.002009  -0.000596  22.391900   0.000798  -0.007716  31.963300  -3.700820  -5.902480  48.229200   0.000000   0.001563  32.122200  -0.003867   0.001309  33.713300  -5.199230  -7.746050  51.099900  -0.000060  -0.002127  34.031200  -0.001336   0.003446  46.141400  -6.749960  -6.448160  69.783800   0.002863   0.013721  46.475600  -0.001321  -0.002365   0.652043   4.546280  -2.298410   0.327468   0.068899  12.119700  -1.155830  -2.719760   2.627710   0.000000   0.000000  -0.000000  -0.357187   2.033760  -2.059930  -1.281620   4.524530 -12.984400   0.892487  -3.311740  -2.156050  -0.000000   0.000000  -0.000000
  2.585760  89.553400   0.889708  -1.216870  -2.543650  -2.460650   0.866989   2.469920   0.293943   1.723690   4.943990   0.551177  -1.893090   2.325990   0.082303  -3.121210   4.701370   5.166050  -6.017360   1.903150  12.070700 -79.631100   7.540820   1.103500   0.095954   7.123280 -16.231900  12.087600  -4.498170   0.462996  39.810600  35.760400 -51.113600 -34.995300  -0.009647  -0.005033 -12.760700  -0.000549  -0.009650 -39.162700  -3.460320   4.233180 -32.146600   0.006215   0.001187 -22.502600   0.007928  -0.001491 -34.389400  -3.598180   5.249260 -51.815000  -0.001805  -0.001769 -34.519800   0.003671  -0.006072 -28.594200  -4.393150   7.997430 -43.352400  -0.000137  -0.000982 -28.878300   0.002241  -0.005750 -37.067500  -5.523930   7.263960 -56.127700   0.012904  -0.007626 -37.381100   0.007794  -0.007102   5.635550   4.717360   6.850260  72.156900  -3.636360  -2.608860   3.472340  -5.516020  17.818700 -21.324900   2.213520   4.980870 -49.424700  48.831000  96.052400  16.284600   0.002238  -0.002521   3.142290   0.000433  -0.006282  39.103600  -0.201793  -0.248257  31.996100  -0.002005  -0.000598  22.390400   0.000799  -0.007717  31.964000  -3.700780  -5.902390  48.228700   0.000000   0.001563  32.122900  -0.003867   0.001308  33.713700  -5.199240  -7.745950  51.095600  -0.000061  -0.002128  34.031500  -0.001337   0.003445  46.141100  -6.749980  -6.448030  69.782800   0.002862   0.013723  46.475300  -0.001323  -0.002366   0.666307   4.521620  -2.298430   0.330529   0.081025  12.103300  -1.174200  -2.728580   2.618180  -0.000000   0.000000   0.000000  -0.349263   1.973290  -2.068800  -1.271680   4.537300 -12.996900   0.880825  -3.311760  -2.158490  -0.000000   0.000000   0.000000
